# xmcd
#
# Track frame offsets:
#	150
#	13498
#	29341
#	45076
#	62144
#	77050
#	93519
#	106055
#	121381
#	135488
#	150452
#	165372
#	181537
#	196103
#
# Disc length: 2819 seconds
#
# Revision: 0
# Processed by: cddbd v1.5.2PL0 Copyright (c) Steve Scherf et al.
# Submitted via: EasyCDDAExtractor 15.3.0.1
#
DISCID=9e0b010e
DTITLE=Anne Nørdsti - På Kryss Og Tvers
DYEAR=2011
DGENRE=
TTITLE0=Je Kjem Fra Stange
TTITLE1=Under Stjernene På Himmelesn
TTITLE2=Jeg Lengter Hjem
TTITLE3=En Klen, Et Kyss Og Farvel
TTITLE4=Tid Leger Sår
TTITLE5=Gas Station Flowers
TTITLE6=Timeglasset Tømmes
TTITLE7=Lyden Av Ditt Hjerte
TTITLE8=Et Sted I Skandinavia
TTITLE9=Summa Summarum
TTITLE10=Hi Og Ho
TTITLE11=Choices
TTITLE12=Veldig Gjerne
TTITLE13=Deanu Majja
EXTD=
EXTT0=
EXTT1=
EXTT2=
EXTT3=
EXTT4=
EXTT5=
EXTT6=
EXTT7=
EXTT8=
EXTT9=
EXTT10=
EXTT11=
EXTT12=
EXTT13=
PLAYORDER=
